<?xml version="1.0" encoding="UTF-8"?>
<!DOCTYPE svg PUBLIC "-//W3C//DTD SVG 1.0//EN"
	"http://www.w3.org/TR/2001/REC-SVG-20010904/DTD/svg10.dtd">
<svg xmlns="http://www.w3.org/2000/svg" version="1.0" width="341" height="480" id="s1">
<g transform="matrix(0.52533257,0,0,0.52533257,0.46288242,0.54762984)" id="m1">
<path d="m 421.69,8.62 c 6.53,-0.74 13.04,-2.17 19.65,-2.04 -7.43,18.59 -12.72,37.92 -18.81,56.96 -7.64,26.77 -15.33,53.68 -18.87,81.36 -0.76,7.5 -1.47,15.37 1.3,22.59 2.13,2.23 4.91,3.71 7.08,5.9 -0.56,3.6 -2.17,6.93 -3.18,10.4 -2.94,8.38 -5.45,16.93 -9.23,24.97 -7.23,0.32 -14.66,0.75 -21.45,3.46 -6.9,2.84 -13.83,5.77 -20.12,9.83 -16.49,10.74 -31.65,23.59 -44.52,38.49 -6.28,7.39 -12.9,14.52 -18.68,22.33 -12.07,15.56 -22.38,32.37 -33.18,48.82 -8.09,13.5 -15.33,27.49 -22.53,41.48 -6.76,14.71 -13.3,29.52 -19.51,44.47 -7.61,19.87 -15.02,39.88 -20.55,60.45 -6.89,23.58 -13.07,47.47 -16.09,71.89 -3.81,25.8 -5.3,52.04 -3.04,78.06 1.61,13.63 4.66,27.22 10.14,39.86 4.12,9.57 10.92,17.65 18.02,25.17 -2.07,6.5 -4.53,12.86 -6.76,19.31 -2.15,6.15 -3.89,12.47 -6.58,18.43 -3.03,-0.11 -6.1,-0.58 -9.11,-0.17 -4.24,0.66 -7.34,4 -10.41,6.69 -12.56,13.71 -20.5,30.92 -26.62,48.31 -3.12,8.86 -6.59,17.59 -9.51,26.52 -5.44,17.49 -10.58,35.08 -15.11,52.83 -1.88,6.4 -3.86,12.8 -6.03,19.13 -10.34,-4.73 -20.12,-10.57 -30.06,-16.04 -17.25,-9.42 -33.32,-20.93 -48.1,-33.87 -4.15,-3.69 -7.72,-7.96 -11.09,-12.36 9.15,-11.16 19.72,-21.07 28.87,-32.23 7.33,-9.13 13.19,-19.37 17.96,-30.03 8.68,-21.17 7.02,-44.62 4.76,-66.89 -1.28,-16.57 -5.88,-32.63 -9.21,-48.84 -2.23,-10.16 -3.76,-20.94 -10.49,-29.32 -5.08,-7.77 -15.69,-8.46 -24.01,-7.17 -10.49,2.7 -19.46,9.2 -28.48,14.92 -3,-23.78 0.16,-47.68 0.67,-71.49 0.2,-6.15 0.22,-12.28 0.55,-18.4 18.26,-5.48 36.11,-13.72 50.17,-26.85 4.75,-4.17 7.98,-9.71 10.7,-15.33 4.74,-10.76 11.1,-20.75 15.21,-31.78 6.47,-17.56 13.26,-35.01 19.25,-52.73 3.89,-10.6 7.93,-21.3 9.44,-32.55 1.04,-6.78 2.43,-13.54 2.56,-20.42 0.22,-8.26 -0.52,-16.51 -1.65,-24.69 -3.13,-15.02 -10.41,-29.03 -20.46,-40.58 -3.87,-4.36 -7.98,-8.5 -11.96,-12.75 5.47,-9.58 14.1,-16.62 21.59,-24.51 13.14,-13.86 22.69,-30.5 32.73,-46.61 5.83,7.56 11.39,15.49 18.96,21.45 9.81,9.04 25.34,11.98 37.12,4.96 22.83,-13.87 43.43,-31.01 63.78,-48.21 12.49,-10.46 23.9,-22.08 35.56,-33.44 11.07,-9.77 20.75,-21.29 27.62,-34.41 2.5,-4.24 2.89,-9.25 4,-13.95 3.96,-21.27 6.45,-42.82 7.58,-64.43 11.38,-5.73 23.18,-10.6 35.2,-14.83 C 384.67,15.1 403.06,11 421.69,8.62 M 288.08,190.4 c -7.22,0.32 -13.75,4 -19.14,8.58 -8.57,9.26 -15.05,21.71 -13.86,34.67 -0.43,6.65 3.04,12.57 7.15,17.46 3.72,2.26 7.97,4.02 12.44,3.61 7.38,-0.67 14.01,-4.8 19.02,-10.08 7.55,-8.94 13.22,-20.44 12.22,-32.43 0.04,-7.38 -2.68,-16.19 -10.03,-19.27 -2.46,-1.17 -4.99,-2.67 -7.8,-2.54 M 121.83,607.42 c -8.97,2.02 -15.99,9.01 -20.84,16.5 -7.9,11.46 -9.68,27.43 -2.93,39.83 3.33,2.65 6.95,5.59 11.35,6.06 7.62,0.75 15.16,-2.67 20.48,-7.99 3.52,-3.51 7.09,-7.16 9.23,-11.7 3.94,-7.76 6.76,-16.52 5.35,-25.32 -0.53,-6.14 -3.45,-12.33 -8.71,-15.76 -4.09,-2.69 -9.33,-1.99 -13.93,-1.62 z" id="p1" style="fill:#000" />
<path d="m 508,43.02 c 2.43,-5.93 5.03,-11.8 8.05,-17.47 11.82,4.19 22.82,10.37 33.47,16.93 19.21,11.36 36.39,26.39 49.65,44.37 -9.16,13.23 -17.36,27.07 -25.22,41.09 -8.28,13.32 -15.65,27.16 -22.99,41.01 -3.18,5.95 -6.22,11.99 -8.96,18.15 -2.07,4.58 -1.97,9.85 -0.93,14.69 2.5,11.79 5.49,23.51 6.56,35.56 3.93,26.74 4.18,53.89 2.5,80.83 -0.52,6.83 0.91,14.02 4.96,19.64 5.59,7.02 15.45,7.6 23.72,7.91 13.48,-0.68 26.42,-5.52 38.37,-11.55 7.87,-3.83 14.83,-9.23 22.47,-13.46 -0.42,8.5 -0.49,17.01 0.15,25.51 0.47,25.66 0.69,51.38 -1.57,76.96 -0.33,5.89 -1.42,11.7 -2.71,17.44 -9.42,0.19 -18.85,0.95 -28.1,2.77 -18.7,4.14 -36.9,14.11 -47.59,30.44 -6.77,9.65 -10.03,21.11 -15.58,31.4 -3.51,6.57 -6.46,13.41 -10.13,19.89 -9.6,18.24 -18.48,36.85 -27.72,55.28 -4.44,8.99 -8.36,18.25 -11.38,27.82 -2.48,8.37 -2.52,17.97 1.96,25.71 8.56,15.28 23.01,25.86 37.4,35.23 -6.08,10.35 -14.28,19.21 -21.36,28.85 -10.35,14.24 -21.36,27.98 -31.98,42.03 -8.37,10.49 -16.52,21.26 -26.33,30.49 -3.94,-9.44 -6.66,-20.51 -15.73,-26.51 -7.5,-6.2 -18.14,-6.78 -27.25,-4.46 -9.58,2.67 -17.89,8.47 -25.56,14.61 -13.08,10.28 -26.71,19.84 -39.5,30.49 -13.05,11.59 -25.75,23.82 -35.87,38.13 -5.65,7.94 -11.69,15.93 -14.77,25.3 -5.57,16.68 -5.29,34.52 -4.9,51.89 -15.68,2.93 -31.65,3.7 -47.54,4.72 -15.2,0.95 -30.41,-0.24 -45.53,-1.71 -6.01,-0.67 -11.87,-2.23 -17.62,-3.98 2.96,-5.27 6.38,-10.29 8.79,-15.83 2.02,-4.62 4.04,-9.23 6.17,-13.79 7.22,-16.75 11.62,-34.51 15.79,-52.21 2.42,-11.2 4.03,-22.56 5.18,-33.94 0.66,-8.89 1.14,-17.91 -0.83,-26.67 -1.02,-6.26 -4.47,-11.65 -6.75,-17.45 l -0.29,-3.82 c 1.9,-6.51 4.67,-12.71 6.46,-19.25 1.64,-5.63 3.61,-11.18 6,-16.52 7.51,-0.42 15.15,1.15 22.59,-0.4 17.23,-3.91 32.84,-13.08 46.39,-24.21 24.88,-20.25 44.88,-45.7 63.02,-71.97 9.57,-14.67 18.88,-29.55 26.81,-45.18 11.05,-19.61 19.74,-40.41 29.21,-60.8 16.59,-40.56 29.6,-82.7 37.11,-125.91 3.34,-25.11 8.28,-50.29 6.53,-75.74 -0.47,-12.97 -2.43,-25.85 -5.5,-38.44 -2.77,-11.99 -8.48,-23.25 -16.01,-32.93 -4.03,-5.66 -10.28,-8.88 -16.13,-12.29 1.5,-8.37 4.8,-16.27 7.25,-24.37 1.16,-2.41 1.34,-5.71 3.56,-7.53 3.77,-2.67 8.31,-4.13 11.84,-7.13 5.54,-5.92 10.16,-12.63 14.65,-19.36 5.33,-8.08 10.69,-16.18 15.28,-24.72 3.73,-7.26 7.46,-14.52 11.27,-21.73 C 489.27,85.89 498.49,64.39 508,43.02 m -11.55,202.41 c -3.95,0.76 -7.5,2.93 -10.71,5.27 -11.45,10.62 -15.7,27.57 -12.19,42.59 2.01,10.19 10.04,20.64 21.26,20.42 5.59,-1 10.65,-4.31 14.75,-8.11 8.04,-9.01 11.62,-21.4 11.12,-33.33 -0.52,-4.58 -1.99,-9.01 -3.46,-13.34 -3.43,-7.99 -11.67,-14.91 -20.77,-13.5 M 361.17,658.44 c -5.95,0.32 -11.57,2.84 -16,6.77 -7.2,5.48 -12.15,13.51 -15.01,22.01 -2.92,8.24 -2.9,17.69 0.69,25.72 3.76,6.06 11.26,10.19 18.47,8.5 6.31,-0.76 11.81,-4.55 16.03,-9.12 7.59,-7.18 12.08,-17.09 14.04,-27.23 0.3,-6.81 -0.23,-14.22 -4.37,-19.92 -2.83,-4.74 -8.6,-6.73 -13.85,-6.73 z" id="p2" style="fill:#000" />
</g>
</svg>